<mxfile host="app.diagrams.net" modified="2024-03-26T22:20:32.591Z" agent="Mozilla/5.0 (Macintosh; Intel Mac OS X 10_15_7) AppleWebKit/537.36 (KHTML, like Gecko) Chrome/112.0.0.0 Safari/537.36" version="24.2.0" etag="HADMGvCmBdR6P8F42Yuf" type="github">
  <diagram name="Page-1" id="zmPmWUSNYZoEQn7qqLT2">
    <mxGraphModel>
      <root>
        <mxCell id="0" />
        <mxCell id="1" parent="0" />
      </root>
    </mxGraphModel>
  </diagram>
</mxfile>
